<svg width="429" height="101" viewBox="0 0 429 101" fill="none" xmlns="http://www.w3.org/2000/svg">
<path fill-rule="evenodd" clip-rule="evenodd" d="M9.64373 1H90.6511C95.9772 1 100.295 5.31765 100.295 10.6437V90.6867C100.295 96.0128 95.9772 100.33 90.6511 100.33H9.64373C4.31765 100.33 0 96.0128 0 90.6867V10.6437C0 5.31765 4.31765 1 9.64373 1ZM84.2593 51.372C84.2815 48.7741 84.0628 46.128 83.4428 43.506C82.8582 40.897 81.9384 38.2543 80.6732 35.845C79.4304 33.4257 77.9304 31.1585 76.1652 29.1413C74.4092 27.1162 72.4596 25.2532 70.266 23.6765C65.9264 20.4848 60.7241 18.1955 54.9508 17.3759C54.4517 17.2837 53.9357 17.2459 53.4195 17.2081C53.2018 17.1921 52.984 17.1761 52.7674 17.1561C52.0354 17.0935 51.3005 17.0563 50.5535 17.0804C50.3421 17.0858 50.1358 17.0881 49.9306 17.0905C49.3983 17.0966 48.8731 17.1026 48.2822 17.1601C47.4495 17.2508 46.6158 17.3596 45.7841 17.4856C42.6247 18.0904 39.7405 19.0653 37.2979 20.3053C36.3453 20.7302 35.5084 21.2226 34.6629 21.72C34.349 21.9048 34.0338 22.0902 33.7111 22.2731C33.5087 22.4083 33.3049 22.5431 33.1009 22.6781C32.2034 23.2718 31.2997 23.8697 30.471 24.5251C29.4437 25.3224 28.4215 26.1339 27.4829 27.0251C26.507 27.8791 25.6088 28.8246 24.7147 29.7783C23.9832 30.5475 23.3051 31.3935 22.6277 32.2385C22.4724 32.4322 22.3171 32.626 22.1612 32.8187L20.9808 34.4881L20.4001 35.3329L19.8558 36.2442L18.7911 38.0879L17.8315 40.11L17.3718 41.1373L16.9646 42.2593C16.9051 42.4334 16.845 42.6056 16.7851 42.7774C16.5831 43.3566 16.383 43.9303 16.2134 44.5507C15.914 45.6293 16.1045 46.6827 16.6711 47.5759C17.2456 48.4872 18.2638 49.3219 19.4826 49.8915C20.1359 50.2049 20.8597 50.4529 21.6278 50.6525C21.5837 51.0322 21.5466 51.4128 21.5095 51.7939C21.4874 52.0218 21.4651 52.25 21.4414 52.4783C21.4365 52.7066 21.43 52.9355 21.4236 53.1647C21.3968 54.1155 21.3698 55.0716 21.4535 56.0147C21.5684 58.3716 21.9949 60.6993 22.6683 62.9604C23.3135 65.2336 24.2742 67.4221 25.4578 69.5099C26.6201 71.6118 28.12 73.5604 29.8218 75.3538C33.2654 78.9708 37.7817 81.6008 42.4894 83.0122C44.8532 83.739 47.2847 84.1251 49.7324 84.3136C52.182 84.4708 54.6457 84.3296 57.0964 83.9688C59.542 83.5605 61.9633 82.8841 64.3233 81.9395C66.665 80.9406 68.9424 79.6894 71.0563 78.1168C73.13 76.522 75.0384 74.7135 76.6543 72.6983C78.2481 70.6762 79.6625 68.5137 80.7552 66.2113C82.9629 61.6176 84.1948 56.5798 84.2593 51.372ZM64.1699 51.8158C64.4159 54.0043 64.1264 56.3801 63.3754 58.5566C63.0124 59.6575 62.478 60.6635 61.9064 61.6312C61.3136 62.5867 60.5969 63.4114 59.8358 64.1866C59.0545 64.9216 58.1412 65.5718 57.1442 66.1605C56.1159 66.7009 55.006 67.1626 53.8286 67.5064C52.6431 67.8048 51.4123 68.0296 50.1623 68.0881C48.9202 68.1163 47.6581 68.078 46.4474 67.8411C44.011 67.3794 41.7962 66.4147 39.9363 64.8593C38.0522 63.3028 36.4432 61.1192 35.4281 58.6393C34.908 57.4055 34.5138 56.099 34.3142 54.7713C34.2176 54.3324 34.1822 53.8935 34.1466 53.4527C34.1283 53.2261 34.11 52.9991 34.0833 52.7712C34.089 52.5658 34.0897 52.3587 34.0905 52.1513C34.0917 51.8022 34.093 51.4519 34.1176 51.1059C35.5733 51.0294 36.9343 50.9588 38.0986 50.9497C39.0479 50.9287 39.8412 50.9641 40.4836 50.9927C40.7047 51.0025 40.908 51.0116 41.0936 51.0173C41.1798 51.0181 41.2612 51.0191 41.3377 51.02C41.9173 51.0269 42.2145 51.0305 42.1522 50.9397C42.1825 50.1171 42.875 48.1372 44.1865 46.4144C45.4487 44.6804 47.1695 42.9565 48.7199 41.9888C49.2796 41.5781 49.7736 41.3465 50.1667 41.1621C50.3245 41.0882 50.466 41.0218 50.589 40.9545C50.6707 40.9344 50.7493 40.8971 50.829 40.8407C50.8834 40.8123 50.9823 40.7999 51.087 40.7868C51.1684 40.7766 51.2534 40.7659 51.3239 40.747C51.5003 40.6956 51.6888 40.6845 51.8804 40.6805C51.9583 40.681 52.0356 40.6704 52.1135 40.6597C52.227 40.6441 52.3419 40.6283 52.462 40.6463C54.0448 40.6331 55.9391 41.1019 57.69 42.0918C59.445 43.0595 61.0459 44.5021 62.1346 46.1221C62.7122 46.9206 63.1184 47.7643 63.4692 48.727C63.8422 49.6695 64.0428 50.7271 64.1699 51.8158Z" fill="url(#paint0_linear_109_18524)"/>
<path d="M139.279 21.3606C148.722 21.3606 156.405 29.0436 156.405 38.4869V50.0842C156.405 59.5272 148.722 67.2106 139.279 67.2106C129.836 67.2106 122.154 59.5276 122.154 50.0842V38.4869C122.154 29.0439 129.836 21.3606 139.279 21.3606ZM149.213 50.0836V38.4863C149.213 33.0086 144.757 28.552 139.279 28.552C133.802 28.552 129.346 33.0084 129.346 38.4863V50.0836C129.346 55.5613 133.802 60.0178 139.279 60.0178C144.757 60.0178 149.213 55.5614 149.213 50.0836ZM176.389 33.4975C185.659 33.4975 193.199 41.0391 193.199 50.3095C193.199 59.58 185.658 67.1215 176.387 67.1215C172.812 67.1215 169.496 65.9955 166.768 64.0852V75.752C166.768 77.738 165.158 79.3479 163.172 79.3479C161.186 79.3479 159.576 77.7378 159.576 75.752V37.0944C159.576 35.1085 161.186 33.4985 163.172 33.4985C164.978 33.4985 166.468 34.8308 166.725 36.5655C169.461 34.6363 172.794 33.4975 176.389 33.4975ZM176.389 59.9278C181.693 59.9278 186.008 55.6125 186.008 50.3086C186.008 45.0046 181.693 40.6894 176.389 40.6894C171.085 40.6894 166.77 45.0046 166.77 50.3086C166.77 55.6125 171.085 59.9278 176.389 59.9278ZM213.201 33.4975C222.496 33.4975 230.057 41.0588 230.057 50.3537C230.057 52.3397 228.447 53.9497 226.461 53.9497H204.231C205.66 57.503 209.143 60.018 213.202 60.018C215.783 60.018 218.21 59.0129 220.035 57.1874C221.44 55.7832 223.716 55.7836 225.121 57.1874C226.526 58.5921 226.525 60.8688 225.121 62.2731C221.937 65.4569 217.704 67.2099 213.201 67.2099C203.906 67.2099 196.345 59.6487 196.345 50.3537C196.345 41.0588 203.906 33.4975 213.201 33.4975ZM204.23 46.7578H222.172C220.743 43.2045 217.261 40.6895 213.201 40.6895C209.142 40.6895 205.66 43.2045 204.23 46.7578ZM246.312 33.4975C253.517 33.4975 259.379 39.36 259.379 46.5653V63.6147C259.379 65.6006 257.769 67.2106 255.783 67.2106C253.797 67.2106 252.187 65.6005 252.187 63.6147V46.5653C252.187 43.3257 249.552 40.6898 246.311 40.6898C243.071 40.6898 240.436 43.3252 240.436 46.5653V63.6147C240.436 65.6006 238.826 67.2106 236.84 67.2106C234.854 67.2106 233.244 65.6005 233.244 63.6147V37.0941C233.244 35.1082 234.854 33.4982 236.84 33.4982C238.127 33.4982 239.253 34.1764 239.888 35.1928C241.786 34.1163 243.978 33.4975 246.312 33.4975ZM311.171 46.4877C313.158 46.4877 314.767 48.0978 314.767 50.0836C314.767 59.5266 307.084 67.2099 297.641 67.2099C288.198 67.2099 280.515 59.5269 280.515 50.0836V38.4863C280.515 29.0433 288.198 21.3599 297.641 21.3599C307.084 21.3599 314.767 29.043 314.767 38.4863C314.767 40.4722 313.157 42.0822 311.171 42.0822C309.186 42.0822 307.576 40.4721 307.576 38.4863C307.576 33.0086 303.119 28.552 297.641 28.552C292.163 28.552 287.707 33.0084 287.707 38.4863V50.0836C287.707 55.5613 292.163 60.0178 297.641 60.0178C303.119 60.0178 307.576 55.5614 307.576 50.0836C307.576 48.0976 309.186 46.4877 311.171 46.4877ZM354.122 53.9477C354.122 53.9486 354.122 53.9495 354.123 53.9504V63.6138C354.123 65.5997 352.513 67.2097 350.527 67.2097C348.542 67.2097 346.932 65.5996 346.932 63.6138V55.4387L325.13 33.6373V63.613C325.13 65.5989 323.52 67.2089 321.534 67.2089C319.549 67.2089 317.938 65.5988 317.938 63.613V24.9554C317.938 23.5008 318.814 22.1895 320.158 21.6331C321.502 21.0771 323.049 21.3841 324.077 22.4125L336.03 34.3661L347.984 22.4125C349.012 21.3841 350.559 21.0757 351.903 21.6331C353.246 22.1896 354.122 23.5008 354.122 24.9554L354.122 53.9477ZM341.116 39.4531L346.931 45.2677V33.6377L341.116 39.4531ZM391.377 62.4256C391.931 64.0092 391.316 65.7659 389.896 66.6581C388.475 67.5508 386.626 67.3422 385.44 66.156L371.909 52.6258C370.505 51.2216 370.505 48.9448 371.909 47.5405C373.314 46.1363 375.591 46.1363 376.995 47.5405L379.383 49.9283L374.453 35.8414L364.317 64.8018C363.798 66.2833 362.408 67.2107 360.922 67.2107C360.528 67.2112 360.128 67.1455 359.734 67.008C357.86 66.3522 356.872 64.3006 357.528 62.4263L371.058 23.7687C371.563 22.3263 372.924 21.3607 374.452 21.3607C375.981 21.3607 377.342 22.3262 377.847 23.7687L391.377 62.4256ZM413.807 21.3606C422.185 21.3606 429 28.1764 429 36.5537C429 44.9311 422.185 51.7469 413.807 51.7469H401.94V63.6137C401.94 65.5996 400.33 67.2096 398.345 67.2096C396.359 67.2096 394.749 65.5995 394.749 63.6137V48.1508C394.749 46.1649 396.359 44.5549 398.345 44.5549H413.807C418.219 44.5549 421.808 40.9656 421.808 36.5536C421.808 32.1416 418.219 28.5522 413.807 28.5522H407.026L414.417 35.9431C415.821 37.3474 415.821 39.6242 414.417 41.0285C413.012 42.4332 410.736 42.4332 409.331 41.0285L395.801 27.4983C394.772 26.4699 394.465 24.9232 395.022 23.5795C395.579 22.2358 396.89 21.3599 398.344 21.3599L413.807 21.3606Z" fill="white"/>
<defs>
<linearGradient id="paint0_linear_109_18524" x1="6.5" y1="39" x2="96" y2="44" gradientUnits="userSpaceOnUse">
<stop stop-color="#2D388A"/>
<stop offset="1" stop-color="#00AEEF"/>
</linearGradient>
</defs>
</svg>
